<?xml version="1.0" encoding="UTF-8" standalone="no"?>
<!-- Created with Inkscape (http://www.inkscape.org/) -->

<svg
   width="32mm"
   height="40mm"
   version="1.1"
   viewBox="0 0 32 40.000001"
   xml:space="preserve"
   id="svg16"
   sodipodi:docname="nakr_pazurkowa.svg"
   inkscape:version="1.4 (e7c3feb1, 2024-10-09)"
   xmlns:inkscape="http://www.inkscape.org/namespaces/inkscape"
   xmlns:sodipodi="http://sodipodi.sourceforge.net/DTD/sodipodi-0.dtd"
   xmlns="http://www.w3.org/2000/svg"
   xmlns:svg="http://www.w3.org/2000/svg"><defs
     id="defs16" /><sodipodi:namedview
     id="namedview16"
     pagecolor="#ffffff"
     bordercolor="#000000"
     borderopacity="0.25"
     inkscape:showpageshadow="2"
     inkscape:pageopacity="0.0"
     inkscape:pagecheckerboard="0"
     inkscape:deskcolor="#d1d1d1"
     inkscape:document-units="mm"
     inkscape:zoom="1.7429552"
     inkscape:cx="69.422323"
     inkscape:cy="96.388018"
     inkscape:window-width="1440"
     inkscape:window-height="847"
     inkscape:window-x="0"
     inkscape:window-y="25"
     inkscape:window-maximized="0"
     inkscape:current-layer="svg16" /><g
     id="g16"
     style="fill:none;stroke-width:0.19201752;stroke-dasharray:none"
     transform="matrix(2.3435362,0,0,2.3435362,1.1178967,4.5652137)"><g
       transform="matrix(1.034,0,0,1.034,-0.1439,-8.22e-4)"
       stroke="#000000"
       stroke-linecap="round"
       stroke-linejoin="round"
       stroke-width="0.256"
       id="g15"
       style="fill:none;stroke-width:0.18570359;stroke-dasharray:none"><path
         d="m 12.1,7.023 v 0.8361 c 0,0 0.1216,0.493 -0.5403,1.236 -0.6619,0.7427 -0.9482,0.8787 -1.142,0.9595 -0.1934,0.08083 -0.332,0.1145 -0.4594,6.62e-4 -0.1274,-0.1138 -0.9018,-0.5058 -0.9018,-0.5058 l -2.568,1.483 c 0,0 -1.32,0.05853 -2.457,-0.2427 -1.137,-0.3012 -1.873,-0.7307 -1.873,-0.7307 0,0 -0.2023,-0.06072 -0.3807,-0.4062 -0.1784,-0.3455 -0.1379,-0.5048 -0.1379,-0.5048 l 0.00619,-0.6479 -1.176,-0.6791 v -0.5644 c 0,0 -0.09771,-0.7552 0.5185,-1.521 0.6162,-0.7654 1.21,-0.991 1.21,-0.991 0,0 0.01177,-0.8765 0.2418,-1.624 0.2301,-0.7476 0.8639,-1.331 0.8639,-1.331 l 0.5232,-0.3159 v 0.7351 c 0,0 0.622,-0.9393 2.54,-0.9393 1.918,0 2.603,1.144 2.603,1.492 v 1.386 l 0.377,0.1324 v -2.485 l 0.4985,0.3102 c 0,0 0.7386,0.5977 0.9473,1.597 0.2087,0.9993 0.1466,1.269 0.1466,1.317 0,0.04827 -0.01535,0.2065 -0.04993,0.2509 -0.06729,0.08641 -0.122,0.1123 -0.122,0.1123 l -0.7742,0.4133 z"
         fill="#ffaf00"
         id="path1"
         style="fill:none;stroke-width:0.18570359;stroke-dasharray:none" /><path
         d="m 1.643,8.5 c 0,0 0.1092,-0.9374 0.353,-1.738 C 2.2398,5.961 2.745,4.944 2.745,4.944 l 0.5002,0.2955 c 0,0 -0.6502,1.163 -0.9028,2.365 -0.2526,1.202 -0.2153,1.85 -0.2153,1.85 0,0 0.8463,0.5492 1.913,0.7633 1.066,0.2142 0.9374,0.1916 1.645,0.2447 0.7078,0.05308 0.7935,0.02958 0.7935,0.02958 l 2.256,-1.314"
         fill="none"
         id="path2"
         style="fill:none;stroke-width:0.18570359;stroke-dasharray:none" /><path
         d="M 9.053,9.549 8.8538,9.45053 c 0,0 -0.04222,-0.01754 -0.07461,-0.1162 -0.0324,-0.0987 -0.04608,-0.1586 -0.04608,-0.1586 v -3.612 c 0,0 0.5969,1.084 0.8986,2.331 0.3017,1.247 0.323,2.161 0.323,2.161"
         fill="none"
         id="path3"
         style="fill:none;stroke-width:0.18570359;stroke-dasharray:none" /><path
         d="M 8.733,5.564 9.2279,5.2646 c 0,0 0.4817,0.8272 0.8667,2.29 0.385,1.463 0.3596,1.913 0.3596,1.913 0,0 0.4144,-0.2416 0.7781,-0.6198 0.3637,-0.3782 0.8637,-1.223 0.8637,-1.223"
         fill="none"
         id="path4"
         style="fill:none;stroke-width:0.18570359;stroke-dasharray:none" /><path
         d="M 9.343,4.28 V 5.484"
         fill="none"
         id="path5"
         style="fill:none;stroke-width:0.18570359;stroke-dasharray:none" /><path
         d="M 9.99,5.795 9.3438,5.4219"
         fill="none"
         id="path6"
         style="fill:none;stroke-width:0.18570359;stroke-dasharray:none" /><path
         d="M 9.842,2.105 V 5.71"
         fill="none"
         id="path7"
         style="fill:none;stroke-width:0.18570359;stroke-dasharray:none" /><path
         d="m 6.478,10.49 0.00751,0.5416"
         fill="none"
         id="path8"
         style="fill:none;stroke-width:0.18570359;stroke-dasharray:none" /><path
         d="M 1.722,7.961 0.466,7.2564"
         fill="none"
         id="path9"
         style="fill:none;stroke-width:0.18570359;stroke-dasharray:none" /><path
         d="M 3.245,5.239 V 8.864 L 2.127,9.453"
         fill="none"
         id="path10"
         style="fill:none;stroke-width:0.18570359;stroke-dasharray:none" /><path
         d="M 3.301,1.79 V 5.391"
         fill="none"
         id="path11"
         style="fill:none;stroke-width:0.18570359;stroke-dasharray:none" /><path
         d="M 2.195,4.744 2.6993,5.0352"
         fill="none"
         id="path12"
         style="fill:none;stroke-width:0.18570359;stroke-dasharray:none" /><path
         d="M 8.966,4.147 V 5.423"
         fill="none"
         id="path13"
         style="fill:none;stroke-width:0.18570359;stroke-dasharray:none" /><path
         d="M 3.301,5.391 3.6015,5.2175"
         fill="none"
         id="path14"
         style="fill:none;stroke-width:0.18570359;stroke-dasharray:none" /><ellipse
         cx="6.3119998"
         cy="2.7520001"
         rx="2.6129999"
         ry="1.502"
         fill="none"
         id="ellipse14"
         style="fill:none;stroke-width:0.18570359;stroke-dasharray:none" /><ellipse
         cx="6.3109999"
         cy="2.8559999"
         rx="1.989"
         ry="1.0140001"
         fill="none"
         id="ellipse15"
         style="fill:none;stroke-width:0.18570359;stroke-dasharray:none" /><path
         d="M 3.699,2.752 V 7.42 c 0,0.4172 0.8712,1.157 2.348,1.157 1.477,0 2.104,-0.4186 2.687,-0.7547"
         fill="none"
         id="path15"
         style="fill:none;stroke-width:0.18570359;stroke-dasharray:none" /></g></g></svg>
